<svg width="46" height="46" viewBox="0 0 46 46" fill="none" xmlns="http://www.w3.org/2000/svg">
<path d="M24.2632 23.6508C24.2632 24.3979 23.6574 25.0037 22.9103 25.0037C22.1631 25.0037 21.5574 24.3979 21.5574 23.6508C21.5574 22.9036 22.1631 22.2979 22.9103 22.2979C23.6574 22.2979 24.2632 22.9036 24.2632 23.6508Z" fill="#0A0A0E"/>
<path d="M25.1952 19.5615H20.6254C19.6307 19.5615 18.8215 20.3707 18.8215 21.3654V25.9352C18.8215 26.9299 19.6307 27.7391 20.6254 27.7391H25.1952C26.1899 27.7391 26.9991 26.9299 26.9991 25.9352V21.3654C26.9991 20.3707 26.1899 19.5615 25.1952 19.5615ZM22.9103 25.9051C21.667 25.9051 20.6555 24.8936 20.6555 23.6503C20.6555 22.407 21.667 21.3955 22.9103 21.3955C24.1536 21.3955 25.1652 22.407 25.1652 23.6503C25.1652 24.8936 24.1536 25.9051 22.9103 25.9051ZM25.4959 21.5157C25.2468 21.5157 25.0449 21.3138 25.0449 21.0648C25.0449 20.8157 25.2468 20.6138 25.4959 20.6138C25.745 20.6138 25.9468 20.8157 25.9468 21.0648C25.9468 21.3138 25.745 21.5157 25.4959 21.5157Z" fill="#0A0A0E"/>
<path d="M26.5482 15.9541L19.2726 15.9541C17.0347 15.9541 15.2139 17.7749 15.2139 20.0128L15.2139 27.2884C15.2139 29.5264 17.0347 31.3472 19.2726 31.3472H26.5482C28.7861 31.3472 30.6069 29.5264 30.6069 27.2884V20.0128C30.6069 17.7749 28.7861 15.9541 26.5482 15.9541ZM27.9011 25.9355C27.9011 27.4275 26.6873 28.6413 25.1953 28.6413H20.6255C19.1335 28.6413 17.9197 27.4275 17.9197 25.9355V21.3657C17.9197 19.8738 19.1335 18.6599 20.6255 18.6599H25.1953C26.6873 18.6599 27.9011 19.8738 27.9011 21.3657V25.9355Z" fill="#0A0A0E"/>
</svg>
