<svg width="46" height="46" viewBox="0 0 46 46" fill="none" xmlns="http://www.w3.org/2000/svg">
<path d="M30.4061 31.3752V25.7968C30.4061 23.0552 29.8159 20.9609 26.6174 20.9609C25.0752 20.9609 24.0471 21.7987 23.6283 22.5983H23.5902V21.2084H20.563V31.3752H23.7235V26.3299C23.7235 24.9972 23.971 23.7216 25.6083 23.7216C27.2266 23.7216 27.2457 25.2257 27.2457 26.4061V31.3562H30.4061V31.3752Z" fill="black"/>
<path d="M15.4226 21.208H18.5831V31.3748H15.4226L15.4226 21.208Z" fill="black"/>
<path d="M17.0028 16.1436C15.9937 16.1436 15.175 16.9622 15.175 17.9713C15.175 18.9804 15.9937 19.8181 17.0028 19.8181C18.0119 19.8181 18.8305 18.9804 18.8305 17.9713C18.8305 16.9622 18.0119 16.1436 17.0028 16.1436Z" fill="black"/>
</svg>
