<svg width="20" height="20" viewBox="0 0 20 20" fill="none" xmlns="http://www.w3.org/2000/svg">
<path d="M15.7918 12.3897C15.3823 11.9633 14.8884 11.7354 14.365 11.7354C13.8458 11.7354 13.3477 11.9591 12.9214 12.3855L11.5875 13.7151C11.4778 13.656 11.368 13.6011 11.2625 13.5463C11.1105 13.4703 10.967 13.3985 10.8446 13.3225C9.59513 12.529 8.45965 11.4948 7.37059 10.1567C6.84295 9.48975 6.48837 8.92834 6.23089 8.35849C6.57702 8.0419 6.89783 7.71266 7.21019 7.39607C7.32838 7.27788 7.44657 7.15546 7.56477 7.03727C8.4512 6.15083 8.4512 5.00268 7.56477 4.11625L6.41239 2.96387C6.28154 2.83302 6.14646 2.69794 6.01983 2.56287C5.76656 2.30116 5.50063 2.031 5.22625 1.77773C4.8168 1.3725 4.32715 1.15723 3.81217 1.15723C3.29719 1.15723 2.7991 1.3725 2.37699 1.77773C2.37276 1.78196 2.37276 1.78196 2.36854 1.78618L0.933356 3.23403C0.393051 3.77433 0.0849076 4.43283 0.0173694 5.19686C-0.083938 6.42943 0.27908 7.57758 0.557675 8.32894C1.2415 10.1736 2.26302 11.8831 3.78685 13.7151C5.6357 15.9228 7.86025 17.6661 10.4014 18.8945C11.3722 19.3546 12.6681 19.8991 14.116 19.9919C14.2046 19.9962 14.2975 20.0004 14.3819 20.0004C15.357 20.0004 16.1759 19.65 16.8175 18.9535C16.8217 18.9451 16.8302 18.9409 16.8344 18.9324C17.0539 18.6665 17.3072 18.4259 17.5731 18.1684C17.7546 17.9953 17.9403 17.8138 18.1218 17.6239C18.5397 17.1891 18.7592 16.6826 18.7592 16.1634C18.7592 15.64 18.5355 15.1376 18.1092 14.7155L15.7918 12.3897ZM17.3029 16.8345C17.2987 16.8345 17.2987 16.8388 17.3029 16.8345C17.1383 17.0118 16.9695 17.1722 16.788 17.3495C16.5136 17.6112 16.235 17.8856 15.9733 18.1937C15.5469 18.6496 15.0446 18.8649 14.3861 18.8649C14.3228 18.8649 14.2553 18.8649 14.192 18.8607C12.9383 18.7805 11.7732 18.2908 10.8995 17.8729C8.5103 16.7163 6.41239 15.0743 4.66906 12.9933C3.22966 11.2584 2.26724 9.65438 1.62984 7.93215C1.23728 6.88109 1.09376 6.06219 1.15708 5.28972C1.19929 4.79585 1.38924 4.3864 1.73959 4.03604L3.179 2.59663C3.38584 2.40246 3.60534 2.29693 3.82062 2.29693C4.08655 2.29693 4.30183 2.45734 4.4369 2.59241C4.44112 2.59663 4.44534 2.60086 4.44956 2.60508C4.70705 2.84568 4.95188 3.09473 5.20937 3.36066C5.34023 3.49574 5.4753 3.63081 5.61038 3.77011L6.76275 4.92248C7.21019 5.36992 7.21019 5.7836 6.76275 6.23104C6.64034 6.35345 6.52214 6.47586 6.39973 6.59405C6.04516 6.95707 5.70746 7.29476 5.34023 7.62401C5.33178 7.63245 5.32334 7.63667 5.31912 7.64512C4.9561 8.00814 5.02364 8.36271 5.09962 8.60332C5.10384 8.61598 5.10806 8.62864 5.11228 8.64131C5.41198 9.36734 5.8341 10.0512 6.47571 10.8658L6.47993 10.8701C7.64497 12.3053 8.87332 13.4239 10.2283 14.2807C10.4014 14.3905 10.5787 14.4791 10.7475 14.5636C10.8995 14.6395 11.043 14.7113 11.1654 14.7873C11.1823 14.7957 11.1992 14.8084 11.2161 14.8168C11.3596 14.8886 11.4946 14.9224 11.6339 14.9224C11.9843 14.9224 12.2038 14.7029 12.2756 14.6311L13.7192 13.1875C13.8627 13.044 14.0906 12.8709 14.3566 12.8709C14.6183 12.8709 14.8336 13.0355 14.9644 13.179C14.9686 13.1833 14.9686 13.1833 14.9729 13.1875L17.2987 15.5133C17.7335 15.9439 17.7335 16.3871 17.3029 16.8345Z" fill="white"/>
<path d="M10.7938 4.75741C11.8997 4.94314 12.9043 5.46656 13.7064 6.26857C14.5084 7.07059 15.0276 8.07522 15.2175 9.18116C15.264 9.45975 15.5046 9.65393 15.7789 9.65393C15.8127 9.65393 15.8423 9.6497 15.876 9.64548C16.1884 9.59483 16.3952 9.29935 16.3446 8.98699C16.1166 7.64889 15.4835 6.42898 14.5168 5.46234C13.5502 4.49569 12.3303 3.86252 10.9922 3.63458C10.6798 3.58393 10.3885 3.79076 10.3337 4.09891C10.2788 4.40705 10.4814 4.70675 10.7938 4.75741Z" fill="white"/>
<path d="M19.9622 8.82242C19.5865 6.61899 18.5481 4.61395 16.9525 3.01836C15.3569 1.42277 13.3519 0.384369 11.1485 0.00868773C10.8403 -0.0461871 10.5491 0.16487 10.4942 0.473013C10.4435 0.785377 10.6504 1.07664 10.9627 1.13151C12.9298 1.46498 14.7238 2.39785 16.1505 3.82038C17.5773 5.24712 18.5059 7.0411 18.8394 9.00815C18.8858 9.28675 19.1264 9.48092 19.4008 9.48092C19.4346 9.48092 19.4641 9.4767 19.4979 9.47248C19.806 9.42605 20.0171 9.13057 19.9622 8.82242Z" fill="white"/>
</svg>
